<?xml version="1.0" standalone="no"?>
<!DOCTYPE svg PUBLIC "-//W3C//DTD SVG 20010904//EN"
 "http://www.w3.org/TR/2001/REC-SVG-20010904/DTD/svg10.dtd">
<svg version="1.0" xmlns="http://www.w3.org/2000/svg"
 width="256.000000pt" height="256.000000pt" viewBox="0 0 256.000000 256.000000"
 preserveAspectRatio="xMidYMid meet">

<g transform="translate(0.000000,256.000000) scale(0.100000,-0.100000)"
fill="#000000" stroke="none">
<path d="M1190 2274 c-96 -84 -242 -157 -360 -180 -112 -22 -243 -15 -368 21
-74 22 -95 25 -107 15 -13 -11 -15 -67 -15 -389 0 -207 5 -416 10 -466 35
-299 162 -525 425 -755 180 -157 312 -242 443 -285 69 -22 103 -16 227 45 204
99 468 332 604 533 50 73 107 202 130 292 34 134 41 243 41 636 0 322 -2 378
-15 389 -12 10 -33 7 -107 -15 -262 -76 -519 -20 -730 159 -43 36 -84 66 -90
65 -7 0 -47 -30 -88 -65z m207 -376 c77 -28 152 -100 187 -177 22 -50 27 -79
33 -183 l6 -124 36 -20 c67 -35 71 -56 71 -347 0 -287 -4 -312 -64 -348 -29
-18 -56 -19 -386 -19 -338 0 -357 1 -388 20 -58 35 -62 60 -62 347 0 291 4
312 71 347 l36 20 6 120 c7 153 24 201 97 278 97 103 228 135 357 86z"/>
<path d="M1197 1816 c-59 -22 -103 -61 -131 -118 -24 -47 -26 -63 -26 -170 l0
-118 241 0 241 0 -4 128 c-3 123 -4 131 -33 178 -42 68 -105 105 -187 110 -39
3 -77 -1 -101 -10z"/>
<path d="M932 1308 c-17 -17 -17 -509 0 -526 17 -17 679 -17 696 0 17 17 17
509 0 526 -17 17 -679 17 -696 0z m387 -143 c53 -27 63 -102 20 -141 -12 -11
-19 -30 -19 -55 0 -28 -5 -41 -20 -49 -33 -17 -60 4 -60 46 0 24 -9 46 -25 66
-38 45 -27 105 26 134 31 17 44 17 78 -1z"/>
</g>
</svg>
